<?xml version="1.0" encoding="UTF-8"?>
<svg id="Layer_1" data-name="Layer 1" xmlns="http://www.w3.org/2000/svg" viewBox="0 0 1000 1000">
  <defs>
    <style>
      .cls-1 {
        fill: #fe652a;
        stroke-width: 0px;
      }
    </style>
  </defs>
  <path class="cls-1" d="M535.25,28.69l12.91,36.87,11.61,37.4,12.96,36.84,20.26,33.83,10.12,38.01,8.76,38.58,26.55,31.25,12.11,37.2,8.67,38.61,15.46,35.82,14.8,36.08,11.78,37.32,25.91,31.49,5.53,39.89,14.73,36.09,23.74,32.38,9.91,38.08,18.16,34.68,15.45,35.8,9.33,38.32,11.89,37.26,17.34,35.02,20.29,33.81,11.2,37.56,17.54,34.98-5.73,40.22-41.12,12.58-37.27-16.65-39.95-7.77-37.18-19.37-41.07-2.67-40.28-5.57-40.26-5.48-40.23-6.91-40.71-1.81-40.73,5.39-40.96-6.16-41.06.02-40.99,2.66-39.36,14.71-41.63-1.2-39.81,9.93-38.83,13.39-38.01,15.36-38.7,12.48-33.51-20.05-7.18-30.41,11.95-37.25,7.45-39.1,25.68-31.59,4.63-40.27,19.18-34.27,14.78-36.08,21.98-33.12,11.47-37.45,17.49-34.96,10.44-37.86,12.21-37.14,11.78-37.32,13.37-36.67,22.23-33.01,8.33-38.75,15.95-35.61,13.17-36.75,26.19-31.39,11.72-37.35,13.29-36.7,18.93-34.38,9.67-38.21,10.92-37.68,15.59-35.79,23.75-32.42,26.98-18.39,38.4,13.69ZM488.95,145.47l-4.51-2.2-17.21,33.85-17.14,36.17-9.84,39.18-19.98,35-21.34,34.44-3.55,41.77-17.99,35.82-21.43,34.41-14.64,37.21-15.3,36.94-18.32,35.69-4.19,41.52-24.57,33.12-15.36,36.9-6.35,40.62-20.19,34.93-11.94,38.34-14.64,37.21-20.77,34.71-18.21,35.77,18.93,16.84,32.08-22.44,35.49-15.81,30.55-23.89,29.15-25.2,26.43-27.81,29.25-25.25,20.6-32.58,29.03-27.52,12.56-37.26,13.37-36.26,12.79-37.87,13.84-37.73,8.37-39.25.5-40.4,10.92-39.05,4.36-40.34,2.21-40.49-9.23-40.53,7.8-40.46-2.29-40.41-4.5-40.36-4.74-37.35Z"/>
</svg>